<?xml version="1.0" standalone="no"?>
<!DOCTYPE svg PUBLIC "-//W3C//DTD SVG 20010904//EN"
 "http://www.w3.org/TR/2001/REC-SVG-20010904/DTD/svg10.dtd">
<svg version="1.0" xmlns="http://www.w3.org/2000/svg"
 width="24px" height="24px" viewBox="0 0 40 40"
 preserveAspectRatio="xMidYMid meet" fill="#FFFFFF">

<g transform="translate(7.5,24) scale(0.1,-0.1)"
fill="#FFFFFF" stroke="none">
<path d="M65 135 c-25 -41 -43 -79 -40 -85 8 -13 182 -13 190 0 7 11 -82 160
-95 160 -4 0 -29 -34 -55 -75z m93 -9 c17 -30 32 -57 32 -60 0 -3 -31 -6 -70
-6 -38 0 -70 3 -70 6 0 9 64 113 70 113 3 0 20 -24 38 -53z"/>
</g>
</svg>
